<svg width="1178" height="220" viewBox="0 0 1178 220" fill="none" xmlns="http://www.w3.org/2000/svg">
<path d="M560.245 51.3087H468.76V96.1175H541.307V125.99H468.76V197.737H431.686V21.703H560.245V51.3087Z" fill="white"/>
<path d="M559.901 197.737V64.378H592.174L594.041 91.3166C597.241 81.8925 602.131 74.6022 608.71 69.4456C615.467 64.2891 623.735 61.7108 633.515 61.7108C636.538 61.7108 639.205 61.9775 641.517 62.5109C644.006 63.0444 646.051 63.7556 647.651 64.6447L643.384 95.5841C641.961 94.8728 639.916 94.3394 637.249 93.9837C634.76 93.4503 631.559 93.1836 627.647 93.1836C622.313 93.1836 617.245 94.5172 612.444 97.1844C607.821 99.8516 603.998 103.852 600.975 109.187C598.13 114.343 596.708 120.833 596.708 128.657V197.737H559.901Z" fill="white"/>
<path d="M737.656 112.387C737.656 104.919 735.611 99.0514 731.522 94.7839C727.61 90.3386 722.187 88.1159 715.252 88.1159C708.495 88.1159 702.716 89.8051 697.915 93.1836C693.114 96.562 689.647 102.252 687.513 110.254L656.574 100.918C659.419 89.005 665.909 79.492 676.044 72.3795C686.18 65.267 699.871 61.7108 717.119 61.7108C728.855 61.7108 738.99 63.5778 747.525 67.3119C756.06 70.8681 762.639 76.2914 767.262 83.5817C772.063 90.872 774.463 99.9405 774.463 110.787V164.931C774.463 171.866 777.575 175.333 783.799 175.333C785.221 175.333 786.644 175.244 788.066 175.066C789.666 174.888 791 174.622 792.067 174.266L789.933 196.67C787.799 197.737 785.31 198.538 782.465 199.071C779.62 199.604 776.33 199.871 772.596 199.871C766.551 199.871 761.039 198.893 756.06 196.937C751.259 194.803 747.436 191.603 744.591 187.335C741.924 182.89 740.59 177.289 740.59 170.532V168.398L745.658 167.331C744.947 174.622 742.279 180.756 737.656 185.735C733.033 190.714 727.343 194.448 720.586 196.937C713.829 199.249 706.717 200.405 699.249 200.405C686.446 200.405 675.955 197.293 667.776 191.069C659.774 184.846 655.774 175.778 655.774 163.864C655.774 154.44 658.707 146.527 664.575 140.126C670.443 133.725 679.423 129.28 691.514 126.79L741.657 116.121V137.726L710.984 144.127C704.939 145.372 700.316 147.239 697.115 149.728C693.914 152.217 692.314 155.863 692.314 160.663C692.314 165.287 693.914 168.843 697.115 171.332C700.493 173.822 704.761 175.066 709.917 175.066C713.474 175.066 716.941 174.622 720.32 173.733C723.698 172.666 726.632 171.065 729.121 168.932C731.788 166.62 733.833 163.864 735.256 160.663C736.856 157.285 737.656 153.284 737.656 148.661V112.387Z" fill="white"/>
<path d="M855.711 61.7108C867.624 61.7108 877.67 63.4889 885.85 67.0452C894.029 70.6014 900.519 75.3134 905.32 81.1812C910.299 87.0491 913.766 93.717 915.722 101.185L881.582 113.454C879.982 105.275 877.137 99.1403 873.047 95.0506C869.135 90.9609 863.534 88.9161 856.244 88.9161C849.843 88.9161 844.331 90.5164 839.707 93.717C835.084 96.9177 831.617 101.63 829.305 107.853C826.994 114.077 825.838 121.9 825.838 131.324C825.838 140.748 827.083 148.572 829.572 154.796C832.062 161.019 835.618 165.642 840.241 168.665C844.864 171.688 850.287 173.199 856.511 173.199C861.667 173.199 866.024 172.31 869.58 170.532C873.314 168.576 876.248 165.82 878.382 162.264C880.693 158.708 882.294 154.351 883.183 149.195L916.256 160.13C914.655 167.954 911.188 174.977 905.854 181.201C900.697 187.246 893.94 191.958 885.583 195.337C877.404 198.715 867.802 200.405 856.777 200.405C843.264 200.405 831.35 197.648 821.037 192.136C810.902 186.624 802.989 178.711 797.299 168.398C791.609 158.085 788.764 145.638 788.764 131.058C788.764 116.477 791.609 104.03 797.299 93.717C802.989 83.4039 810.813 75.4912 820.77 69.9791C830.906 64.4669 842.552 61.7108 855.711 61.7108Z" fill="white"/>
<path d="M1062.07 64.378L1001.53 129.191L994.327 132.125L955.653 174.8L955.386 135.859L1020.2 64.378H1062.07ZM964.988 6.23325V197.737H928.181V6.23325H964.988ZM1006.6 106.786L1065.01 197.737H1023.67L981.525 128.39L1006.6 106.786Z" fill="white"/>
<path d="M1118.64 200.405C1105.66 200.405 1093.75 198.093 1082.9 193.47C1072.05 188.669 1063.16 181.823 1056.23 172.933L1075.7 152.128C1079.79 158.885 1085.48 164.309 1092.77 168.398C1100.24 172.488 1108.59 174.533 1117.84 174.533C1124.24 174.533 1129.49 173.377 1133.58 171.065C1137.84 168.576 1139.98 165.198 1139.98 160.93C1139.98 157.907 1139 155.329 1137.04 153.195C1135.09 151.062 1131.17 149.372 1125.31 148.128L1103.44 143.593C1088.14 140.215 1077.3 135.325 1070.9 128.924C1064.5 122.523 1061.29 114.165 1061.29 103.852C1061.29 96.562 1063.43 89.8052 1067.7 83.5817C1072.14 77.1805 1078.63 71.935 1087.17 67.8453C1095.88 63.7556 1106.55 61.7108 1119.17 61.7108C1132.33 61.7108 1143.71 63.9334 1153.31 68.3787C1163.09 72.8241 1170.65 79.0475 1175.98 87.0491L1156.51 107.053C1152.78 100.652 1147.53 95.8508 1140.78 92.6501C1134.2 89.2717 1127.53 87.5825 1120.77 87.5825C1115.79 87.5825 1111.62 88.2048 1108.24 89.4495C1104.86 90.5164 1102.28 92.1167 1100.5 94.2505C1098.72 96.2064 1097.84 98.6069 1097.84 101.452C1097.84 104.475 1099.08 107.142 1101.57 109.453C1104.06 111.765 1108.33 113.543 1114.37 114.788L1140.78 120.122C1153.76 122.789 1163 127.235 1168.52 133.458C1174.21 139.682 1177.05 147.239 1177.05 156.129C1177.05 168.932 1172.07 179.512 1162.11 187.869C1152.16 196.226 1137.67 200.405 1118.64 200.405Z" fill="white"/>
<path d="M323.082 0.000295542L145.723 1.28966C142.092 1.3193 138.922 3.72017 137.925 7.18811L110.531 101.949C109.534 105.417 106.349 107.817 102.733 107.847L35.6522 108.336C32.0214 108.366 28.8519 110.767 27.8549 114.235L0.326125 209.44C-1.19168 214.671 2.78139 219.888 8.24251 219.844L74.877 219.354C78.5078 219.325 81.6774 216.924 82.6744 213.456L110.069 118.696C111.066 115.228 114.251 112.827 117.867 112.797L295.673 111.493C299.304 111.463 302.473 109.062 303.47 105.594L330.999 10.4041C332.517 5.17256 328.544 -0.0441651 323.082 0.000295542Z" fill="url(#paint0_linear_348_919)"/>
<path d="M200.765 128.328L129.682 128.758C126.051 128.788 122.881 131.189 121.884 134.657L108.671 180.362C107.153 185.594 111.126 190.811 116.602 190.766L187.686 190.336C191.316 190.307 194.486 187.906 195.483 184.438L208.697 138.732C210.214 133.501 206.241 128.284 200.765 128.328Z" fill="url(#paint1_linear_348_919)"/>
<defs>
<linearGradient id="paint0_linear_348_919" x1="88.4568" y1="219.844" x2="269.352" y2="-65.5855" gradientUnits="userSpaceOnUse">
<stop stop-color="#1A42C5"/>
<stop offset="1" stop-color="#1B68DA"/>
</linearGradient>
<linearGradient id="paint1_linear_348_919" x1="88.4568" y1="219.844" x2="269.352" y2="-65.5855" gradientUnits="userSpaceOnUse">
<stop stop-color="#1A42C5"/>
<stop offset="1" stop-color="#1B68DA"/>
</linearGradient>
</defs>
</svg>
